<svg xmlns="http://www.w3.org/2000/svg" viewBox="0 0 178.849 30.005"><path d="M178.849 29.482v-5.443h-12.28V.436h-6.228v29.046zm-45.986-5.443h-8.013v-6.62h8.013c2.395 0 3.702 1.481 3.702 3.31 0 2.09-1.394 3.31-3.702 3.31m-.261-12.063h-7.752V5.879h7.752c2.09 0 3.397 1.263 3.397 3.048 0 1.873-1.307 3.049-3.397 3.049m1.829 17.506c5.574 0 8.448-3.484 8.448-7.882a6.983 6.983 0 00-5.574-7.098 6.487 6.487 0 005.008-6.663c0-3.876-2.831-7.403-8.361-7.403h-15.285v29.046zm-44.592.523c7.795 0 11.627-4.007 11.627-9.32 0-10.843-16.68-7.751-16.68-12.324 0-1.741 1.482-2.874 4.095-2.874a12.479 12.479 0 018.448 3.179l3.44-4.616A16.158 16.158 0 0089.447 0C82.61 0 78.429 4.007 78.429 8.84c0 10.931 16.722 7.404 16.722 12.455 0 1.698-1.611 3.223-5.051 3.223a12.759 12.759 0 01-9.232-3.963l-3.397 4.833c2.744 2.744 6.75 4.617 12.368 4.617m-39.193 0c7.795 0 11.627-4.007 11.627-9.32 0-10.843-16.678-7.751-16.678-12.324 0-1.741 1.48-2.874 4.093-2.874a12.477 12.477 0 018.448 3.179l3.44-4.616A16.162 16.162 0 0050.255 0c-6.837 0-11.017 4.007-11.017 8.84 0 10.931 16.722 7.404 16.722 12.455 0 1.698-1.611 3.223-5.052 3.223a12.762 12.762 0 01-9.232-3.963l-3.396 4.833c2.743 2.744 6.749 4.617 12.367 4.617m-37.93-16.331H6.184V5.879h6.532c2.439 0 4.31 1.481 4.31 3.919 0 2.396-1.871 3.876-4.31 3.876M6.184 29.482V19.118h7.403c6.27 0 9.755-4.268 9.755-9.32 0-5.095-3.441-9.362-9.755-9.362H0v29.046z" fill="#404040"/></svg>